<svg xmlns="http://www.w3.org/2000/svg" xmlns:xlink="http://www.w3.org/1999/xlink" viewBox="0 0 69.61 27.99"><defs><style>.cls-1{fill:url(#linear-gradient);}.cls-2{fill:url(#linear-gradient-2);}.cls-3{fill:url(#linear-gradient-3);}.cls-4{fill:url(#linear-gradient-4);}</style><linearGradient id="linear-gradient" x1="-14.18" y1="-3.52" x2="23.61" y2="16.23" gradientUnits="userSpaceOnUse"><stop offset="0" stop-color="#0071bf"/><stop offset="0.23" stop-color="#0878c6"/><stop offset="0.6" stop-color="#1f8dda"/><stop offset="1" stop-color="#3fa9f5"/></linearGradient><linearGradient id="linear-gradient-2" x1="-9.89" y1="-11.73" x2="27.9" y2="8.01" xlink:href="#linear-gradient"/><linearGradient id="linear-gradient-3" x1="-5.31" y1="-20.49" x2="32.47" y2="-0.74" xlink:href="#linear-gradient"/><linearGradient id="linear-gradient-4" x1="38.49" y1="-3.9" x2="50.07" y2="29.13" gradientUnits="userSpaceOnUse"><stop offset="0" stop-color="#0071bf"/><stop offset="0.23" stop-color="#0878c6"/><stop offset="0.37" stop-color="#107fcd"/><stop offset="0.68" stop-color="#2592df"/><stop offset="1" stop-color="#3fa9f5"/></linearGradient></defs><title>logo--bro</title><g id="Layer_2" data-name="Layer 2"><g id="Layer_1-2" data-name="Layer 1"><path class="cls-1" d="M0,15.92,2.72,1A1.17,1.17,0,0,1,3.83,0h12a3.58,3.58,0,0,1,3.66,4.38l-.24,1.35a.5.5,0,0,0,0,.12,4.07,4.07,0,0,1-1.3,2.25c.06-.06.6.93.63,1a2.7,2.7,0,0,1,.21,1.11,7.17,7.17,0,0,1-.11,1l-.27,1.48a5.2,5.2,0,0,1-4.93,4.12H.8A.76.76,0,0,1,0,15.92ZM5.73,12.3a.16.16,0,0,0,.16.19h6.62a1,1,0,0,0,1-.83l.08-.47a.67.67,0,0,0-.69-.83H6.27a.23.23,0,0,0-.22.19ZM6.84,6.18A.15.15,0,0,0,7,6.37h6.2a1,1,0,0,0,1-.83l.08-.47a.68.68,0,0,0-.69-.83H7.38a.23.23,0,0,0-.22.19Z"/><path class="cls-2" d="M20.81,16.85a.77.77,0,0,1-.78-.93L22.73,1A1.19,1.19,0,0,1,23.85,0h12a3.58,3.58,0,0,1,3.66,4.38L38.8,8.24a5.51,5.51,0,0,1-3,3.84.2.2,0,0,0-.11.27l2,3.43a.68.68,0,0,1-.6,1c-1.65,0-2.67.05-3.34.05-1.15,0-1.54,0-1.75-.45l-1.8-3.53a.47.47,0,0,0-.43-.24H25.88a.22.22,0,0,0-.22.19l-.56,3.1a1.19,1.19,0,0,1-1.12.93Zm5.68-8.62a.15.15,0,0,0,.15.19h6.2a1.07,1.07,0,0,0,1-.83l.45-2.52a.68.68,0,0,0-.7-.83H27.4a.25.25,0,0,0-.23.19Z"/><path class="cls-3" d="M60.34,4.38c.47,2.65.95,5.31,1.43,8a3.86,3.86,0,0,1-1,3,3.62,3.62,0,0,1-2,1l-14.83.51a3.59,3.59,0,0,1-3.67-4.38l1.46-8.09A5.53,5.53,0,0,1,47,0h9.69a4,4,0,0,1,1.1.34C59.84,1.34,60.27,4,60.34,4.38Zm-4.57,0H47.39a.7.7,0,0,0-.67.56l-1.27,7a.46.46,0,0,0,.47.56l10.85-1.11Q56.26,7.83,55.77,4.34Z"/><path class="cls-4" d="M24.3,25.23c5.6,1.2,24.13,4.87,36.47,1.11,6.11-1.87,7.64-4.62,8.1-5.6,1.61-3.49.19-7.26-.43-8.68a13.39,13.39,0,0,1-1.71,3.75,15.64,15.64,0,0,1-7,5.53c-5.46,2.49-12.55,4-22.33,4.29A111.23,111.23,0,0,1,24.3,25.23Z"/></g></g></svg>